<svg width="32" height="28" viewBox="0 0 32 28" fill="none" xmlns="http://www.w3.org/2000/svg">
<path d="M8.5 0C11.1459 0 13.4455 1.26502 15.1499 3.65839C15.4868 4.13131 15.7682 4.6036 16 5.0425C16.2317 4.6036 16.5132 4.13131 16.8501 3.65839C18.5545 1.26502 20.8541 0 23.5 0C28.4 0 32 4.09672 32 9.11963C32 14.718 27.4716 18.5493 20.6169 24.3487C19.3401 25.429 18.0199 26.546 16.614 27.7699C16.4378 27.9233 16.2189 28 16 28C15.7811 28 15.5622 27.9233 15.386 27.7699C13.9801 26.546 12.6599 25.429 11.3831 24.3487C4.52844 18.5493 0 14.718 0 9.11963C0 4.09804 3.59831 0 8.5 0ZM12.5909 22.9082C13.6857 23.8345 14.8124 24.7877 16 25.8141C17.1876 24.7877 18.3142 23.8345 19.4091 22.9082C23.0934 19.7909 26.0633 17.2778 27.9341 14.8161H23.5C23.1449 14.8161 22.8202 14.6146 22.6615 14.2955L21.625 12.2133L18.7135 18.0623C18.5548 18.3814 18.2301 18.5829 17.875 18.5829C17.5199 18.5829 17.1952 18.3814 17.0365 18.0623L16 15.9801L14.9635 18.0623C14.8047 18.3813 14.4801 18.5829 14.125 18.5829C13.7699 18.5829 13.4453 18.3813 13.2865 18.0623L10.375 12.2133L9.3385 14.2955C9.17975 14.6146 8.85513 14.8098 8.5 14.8098H4.06594C5.93669 17.2716 8.90656 19.7909 12.5909 22.9082ZM7.92063 12.9327L9.5365 9.68647C9.69525 9.36742 10.0199 9.1659 10.375 9.1659C10.7301 9.1659 11.0547 9.36742 11.2135 9.68647L14.125 15.5354L15.1615 13.4532C15.3203 13.1342 15.6449 12.9327 16 12.9327C16.3551 12.9327 16.6798 13.1342 16.8385 13.4533L17.875 15.5354L20.7865 9.68641C20.9452 9.36742 21.2699 9.1659 21.625 9.1659C21.9801 9.1659 22.3048 9.36742 22.4635 9.68647L24.0794 12.9327H29.145C29.7824 11.7062 30.125 10.4577 30.125 9.11963C30.125 4.99428 27.2769 1.8834 23.5 1.8834C21.4721 1.8834 19.7582 2.83477 18.4058 4.71108C17.3412 6.18824 16.9082 7.70526 16.903 7.7239C16.79 8.13084 16.4208 8.41254 16 8.41254C15.5786 8.41254 15.209 8.13009 15.0965 7.72214C15.0804 7.66376 13.4298 1.8834 8.5 1.8834C4.72313 1.8834 1.875 4.99428 1.875 9.11963C1.875 10.4577 2.21756 11.7062 2.855 12.9327H7.92063Z" fill="white"/>
</svg>
