<svg width="28" height="30" viewBox="0 0 28 30" fill="none" xmlns="http://www.w3.org/2000/svg">
<path d="M21.2327 6.91991C19.2881 6.6222 17.3475 7.0163 15.7037 8.03173C16.1941 7.00915 16.9614 6.08431 17.9991 5.26898C19.2353 4.29773 20.4081 3.85511 20.4177 3.85154C20.9032 3.67341 21.1445 3.15545 20.9569 2.69466C20.7693 2.23394 20.2238 2.00472 19.7381 2.18291C19.5895 2.2374 17.255 3.11847 15.4112 5.1754C15.3421 4.85161 15.2456 4.52572 15.115 4.20263C14.0179 1.48998 11.004 0.139045 10.8763 0.0828537C10.645 -0.0188062 10.3802 -0.0272437 10.1423 0.0593577C9.90448 0.146076 9.71367 0.320509 9.61354 0.542872C9.55817 0.66586 8.27083 3.58394 9.36792 6.29659C9.46681 6.54104 9.58138 6.77425 9.70787 6.99661C8.7548 6.79657 7.76161 6.76757 6.76731 6.91985C2.40712 7.58764 -0.585225 11.5821 0.0969026 15.8246C0.582417 18.8443 1.2922 21.438 2.20681 23.5333C3.24407 25.9099 4.55419 27.6573 6.10074 28.7271C7.3253 29.574 8.68937 30.0001 10.1697 30C10.5791 30 10.9977 29.9674 11.4245 29.902C12.4093 29.7513 13.272 29.4086 14 28.8806C14.7281 29.4086 15.5908 29.7513 16.5756 29.902C18.5446 30.2036 20.3359 29.8083 21.8993 28.7271C23.4458 27.6574 24.756 25.91 25.7932 23.5333C26.7078 21.4378 27.4176 18.8442 27.9031 15.8246C28.5852 11.5821 25.5929 7.58764 21.2327 6.91991ZM11.0259 2.2384C11.806 2.75074 12.8634 3.62724 13.3554 4.8437C13.8443 6.05255 13.6751 7.38128 13.457 8.26083C12.6769 7.74854 11.6196 6.87204 11.1276 5.65552C10.6386 4.44673 10.8079 3.11806 11.0259 2.2384ZM26.04 15.5547C25.0821 21.513 23.2665 25.568 20.7893 27.2812C19.6311 28.0823 18.3509 28.362 16.8756 28.1359C15.9715 27.9975 15.2574 27.6479 14.6922 27.0671C14.5138 26.8839 14.2628 26.7796 13.9999 26.7796C13.737 26.7796 13.4861 26.8839 13.3077 27.0671C12.7425 27.6479 12.0283 27.9974 11.1242 28.1359C9.64892 28.3617 8.3688 28.0823 7.21048 27.2812C4.73334 25.568 2.91776 21.513 1.95982 15.5547C1.43319 12.2792 3.72447 9.19792 7.06733 8.68604C7.38808 8.63688 7.7089 8.61262 8.0273 8.61262C9.32866 8.61262 10.5908 9.01844 11.658 9.79241C13.0368 10.7924 14.9629 10.7924 16.3417 9.79241C17.6701 8.82907 19.3005 8.43602 20.9324 8.68604H20.9324C24.2754 9.19797 26.5666 12.2792 26.04 15.5547Z" fill="white"/>
</svg>
