<svg width="32" height="30" viewBox="0 0 32 30" fill="none" xmlns="http://www.w3.org/2000/svg">
<mask id="path-1-inside-1" fill="white">
<path d="M31.6861 6.85619L28.8987 2.79709L29.3293 1.14616C29.3866 0.926092 29.3478 0.692432 29.2221 0.501753C29.0963 0.311075 28.8952 0.180963 28.6675 0.142901C26.4469 -0.228618 24.5502 0.124762 23.0304 1.19738C20.1827 3.20716 19.5158 7.19776 19.2648 8.74201H10.9735C10.4708 8.74201 9.95982 8.81733 9.45819 8.96448C9.03175 7.61245 7.76188 6.62886 6.26544 6.62886H5.23281C3.36524 6.62886 1.87349 8.12828 1.87349 9.96571V17.4024C1.87349 17.7147 2.04155 17.9994 2.32761 18.1348C2.44155 18.1887 2.55693 18.2151 2.67862 18.2151C2.86268 18.2151 3.04168 18.1547 3.19087 18.0374L5.58394 15.8948C6.18162 18.8174 7.092 21.6623 7.9185 23.9181C6.36069 23.3587 5.062 22.6285 4.17506 21.8004C3.34174 21.023 2.04236 20.9245 1.08555 21.5659C0.460985 21.9849 0.0681718 22.6505 0.00798421 23.392C-0.0515784 24.1253 0.224235 24.8346 0.764361 25.3378C2.14749 26.6279 3.96249 27.685 6.15894 28.4799C8.90938 29.4743 12.1219 30 15.4493 30C18.7761 30 21.9883 29.4743 24.7389 28.4799C26.9345 27.6857 28.7494 26.6287 30.133 25.3382C30.6736 24.8348 30.9494 24.1254 30.8899 23.3921C30.8296 22.6505 30.4369 21.985 29.8126 21.5661C29.3982 21.2881 28.9138 21.1411 28.4118 21.1411C27.7793 21.1411 27.1797 21.3752 26.723 21.8006C25.8448 22.62 24.5639 23.3444 23.0283 23.9016C24.2871 20.8166 25.5634 17.6317 25.5634 14.5025C25.5634 10.9369 26.3977 10.0845 26.7564 9.88344C27.2686 9.59647 27.9926 9.93152 28.3795 10.1572C29.0597 10.5532 29.9194 10.4752 30.5188 9.96257L31.3686 9.2346C32.0681 8.63619 32.2049 7.61405 31.6861 6.85619ZM12.2825 10.3674H19.2218V10.5481C19.2218 12.2287 17.768 13.6184 16.0598 13.6184H15.3939C13.6856 13.6184 12.2825 12.2286 12.2825 10.5481V10.3674ZM6.05319 11.4954C5.48975 12.3767 5.24875 13.3335 5.3195 14.2849L3.52574 15.7129V9.96565C3.52574 9.02449 4.27618 8.25434 5.23275 8.25434H6.26537C7.08894 8.25434 7.75775 8.82041 7.92082 9.59431C7.92175 9.59868 7.92388 9.62641 7.92644 9.66121C7.16638 10.1386 6.51337 10.7756 6.05319 11.4954ZM27.8596 22.9803C28.0077 22.8424 28.2037 22.7664 28.4119 22.7664C28.5804 22.7664 28.7428 22.8156 28.8817 22.9089C29.0911 23.0494 29.2228 23.2728 29.243 23.5215C29.2545 23.663 29.2378 23.9336 28.9971 24.1578C28.9969 24.1578 28.9968 24.158 28.9966 24.1582C27.7769 25.296 26.1527 26.2367 24.169 26.9541C21.599 27.8834 18.5839 28.3745 15.4493 28.3745C12.3143 28.3745 9.29882 27.8834 6.729 26.9542C4.74462 26.2362 3.12024 25.2954 1.90061 24.1578C1.65999 23.9336 1.64336 23.663 1.65474 23.5215C1.67499 23.2727 1.80668 23.0494 2.0158 22.909C2.15824 22.8136 2.32268 22.7668 2.48543 22.7668C2.68718 22.7668 2.88643 22.8388 3.03743 22.9798C4.42668 24.2769 6.51319 25.3122 9.06944 25.9733C9.25888 26.0228 9.45838 26.0716 9.66257 26.1184C10.5722 26.3267 11.5251 26.4856 12.494 26.5905C14.4131 26.8 16.4598 26.8009 18.374 26.5932C19.3543 26.489 20.3171 26.3291 21.2343 26.1185C21.4087 26.0788 21.5966 26.033 21.8281 25.9738C24.3847 25.3117 26.4705 24.2764 27.8596 22.9803ZM15.3663 18.8266C15.4306 18.8266 15.5052 18.8267 15.5694 18.8267C17.5488 18.8267 17.487 20.6465 17.487 20.7955V25.0448C16.1652 25.1485 14.7608 25.1478 13.439 25.043V20.7955C13.439 20.7129 13.3838 18.8266 15.3663 18.8266ZM30.2844 8.00807C30.2844 8.00813 30.2842 8.00826 30.2841 8.00832L29.4346 8.73604C29.3736 8.78825 29.2877 8.79698 29.2216 8.75855C28.0223 8.0588 26.8564 7.95654 25.9387 8.47084C24.5744 9.23534 23.9111 11.2083 23.9111 14.5023C23.9111 17.3767 22.6463 20.475 21.4233 23.4714C21.2849 23.8103 21.1432 24.1576 21.0048 24.5012C20.9552 24.513 20.9206 24.5244 20.8738 24.535C20.3077 24.6651 19.7175 24.7738 19.1392 24.8609V20.7953C19.1392 20.1045 18.8362 17.2132 15.797 17.2132C15.7476 17.2132 15.6881 17.2053 15.6375 17.2031C15.5166 17.197 15.3863 17.1969 15.265 17.2034C15.2091 17.2064 15.1652 17.2155 15.109 17.2155C12.0638 17.2155 11.7868 20.0841 11.7868 20.7953V24.8568C11.2085 24.7701 10.6091 24.6626 10.051 24.5348C10.0043 24.5241 9.95213 24.513 9.90601 24.5021C8.90782 21.9189 7.64575 18.2032 6.99894 14.4846C6.99225 14.4474 6.98381 14.4102 6.97838 14.3771C6.73144 12.8182 7.95063 11.4378 9.19626 10.8143C9.66551 10.5784 10.2171 10.4349 10.6301 10.3892V10.5479C10.6301 13.1248 12.7746 15.2437 15.3938 15.2437H16.0598C18.679 15.2437 20.8739 13.1247 20.8739 10.5479V9.55902C20.8739 9.54469 20.8405 9.53141 20.8397 9.51764C20.8649 9.39287 20.8742 9.23706 20.9058 9.04226C21.1425 7.579 21.6888 4.15219 24.0013 2.5202C24.9499 1.85077 26.121 1.55642 27.4981 1.64121L27.2077 2.74685C27.149 2.97209 27.1901 3.21116 27.3224 3.40381L30.3167 7.76476C30.37 7.8426 30.3558 7.94707 30.2844 8.00807Z"/>
<path d="M25.9936 5.72491C26.3358 5.72491 26.6132 5.45201 26.6132 5.11536C26.6132 4.77872 26.3358 4.50582 25.9936 4.50582C25.6514 4.50582 25.374 4.77872 25.374 5.11536C25.374 5.45201 25.6514 5.72491 25.9936 5.72491Z"/>
</mask>
<path d="M31.6861 6.85619L28.8987 2.79709L29.3293 1.14616C29.3866 0.926092 29.3478 0.692432 29.2221 0.501753C29.0963 0.311075 28.8952 0.180963 28.6675 0.142901C26.4469 -0.228618 24.5502 0.124762 23.0304 1.19738C20.1827 3.20716 19.5158 7.19776 19.2648 8.74201H10.9735C10.4708 8.74201 9.95982 8.81733 9.45819 8.96448C9.03175 7.61245 7.76188 6.62886 6.26544 6.62886H5.23281C3.36524 6.62886 1.87349 8.12828 1.87349 9.96571V17.4024C1.87349 17.7147 2.04155 17.9994 2.32761 18.1348C2.44155 18.1887 2.55693 18.2151 2.67862 18.2151C2.86268 18.2151 3.04168 18.1547 3.19087 18.0374L5.58394 15.8948C6.18162 18.8174 7.092 21.6623 7.9185 23.9181C6.36069 23.3587 5.062 22.6285 4.17506 21.8004C3.34174 21.023 2.04236 20.9245 1.08555 21.5659C0.460985 21.9849 0.0681718 22.6505 0.00798421 23.392C-0.0515784 24.1253 0.224235 24.8346 0.764361 25.3378C2.14749 26.6279 3.96249 27.685 6.15894 28.4799C8.90938 29.4743 12.1219 30 15.4493 30C18.7761 30 21.9883 29.4743 24.7389 28.4799C26.9345 27.6857 28.7494 26.6287 30.133 25.3382C30.6736 24.8348 30.9494 24.1254 30.8899 23.3921C30.8296 22.6505 30.4369 21.985 29.8126 21.5661C29.3982 21.2881 28.9138 21.1411 28.4118 21.1411C27.7793 21.1411 27.1797 21.3752 26.723 21.8006C25.8448 22.62 24.5639 23.3444 23.0283 23.9016C24.2871 20.8166 25.5634 17.6317 25.5634 14.5025C25.5634 10.9369 26.3977 10.0845 26.7564 9.88344C27.2686 9.59647 27.9926 9.93152 28.3795 10.1572C29.0597 10.5532 29.9194 10.4752 30.5188 9.96257L31.3686 9.2346C32.0681 8.63619 32.2049 7.61405 31.6861 6.85619ZM12.2825 10.3674H19.2218V10.5481C19.2218 12.2287 17.768 13.6184 16.0598 13.6184H15.3939C13.6856 13.6184 12.2825 12.2286 12.2825 10.5481V10.3674ZM6.05319 11.4954C5.48975 12.3767 5.24875 13.3335 5.3195 14.2849L3.52574 15.7129V9.96565C3.52574 9.02449 4.27618 8.25434 5.23275 8.25434H6.26537C7.08894 8.25434 7.75775 8.82041 7.92082 9.59431C7.92175 9.59868 7.92388 9.62641 7.92644 9.66121C7.16638 10.1386 6.51337 10.7756 6.05319 11.4954ZM27.8596 22.9803C28.0077 22.8424 28.2037 22.7664 28.4119 22.7664C28.5804 22.7664 28.7428 22.8156 28.8817 22.9089C29.0911 23.0494 29.2228 23.2728 29.243 23.5215C29.2545 23.663 29.2378 23.9336 28.9971 24.1578C28.9969 24.1578 28.9968 24.158 28.9966 24.1582C27.7769 25.296 26.1527 26.2367 24.169 26.9541C21.599 27.8834 18.5839 28.3745 15.4493 28.3745C12.3143 28.3745 9.29882 27.8834 6.729 26.9542C4.74462 26.2362 3.12024 25.2954 1.90061 24.1578C1.65999 23.9336 1.64336 23.663 1.65474 23.5215C1.67499 23.2727 1.80668 23.0494 2.0158 22.909C2.15824 22.8136 2.32268 22.7668 2.48543 22.7668C2.68718 22.7668 2.88643 22.8388 3.03743 22.9798C4.42668 24.2769 6.51319 25.3122 9.06944 25.9733C9.25888 26.0228 9.45838 26.0716 9.66257 26.1184C10.5722 26.3267 11.5251 26.4856 12.494 26.5905C14.4131 26.8 16.4598 26.8009 18.374 26.5932C19.3543 26.489 20.3171 26.3291 21.2343 26.1185C21.4087 26.0788 21.5966 26.033 21.8281 25.9738C24.3847 25.3117 26.4705 24.2764 27.8596 22.9803ZM15.3663 18.8266C15.4306 18.8266 15.5052 18.8267 15.5694 18.8267C17.5488 18.8267 17.487 20.6465 17.487 20.7955V25.0448C16.1652 25.1485 14.7608 25.1478 13.439 25.043V20.7955C13.439 20.7129 13.3838 18.8266 15.3663 18.8266ZM30.2844 8.00807C30.2844 8.00813 30.2842 8.00826 30.2841 8.00832L29.4346 8.73604C29.3736 8.78825 29.2877 8.79698 29.2216 8.75855C28.0223 8.0588 26.8564 7.95654 25.9387 8.47084C24.5744 9.23534 23.9111 11.2083 23.9111 14.5023C23.9111 17.3767 22.6463 20.475 21.4233 23.4714C21.2849 23.8103 21.1432 24.1576 21.0048 24.5012C20.9552 24.513 20.9206 24.5244 20.8738 24.535C20.3077 24.6651 19.7175 24.7738 19.1392 24.8609V20.7953C19.1392 20.1045 18.8362 17.2132 15.797 17.2132C15.7476 17.2132 15.6881 17.2053 15.6375 17.2031C15.5166 17.197 15.3863 17.1969 15.265 17.2034C15.2091 17.2064 15.1652 17.2155 15.109 17.2155C12.0638 17.2155 11.7868 20.0841 11.7868 20.7953V24.8568C11.2085 24.7701 10.6091 24.6626 10.051 24.5348C10.0043 24.5241 9.95213 24.513 9.90601 24.5021C8.90782 21.9189 7.64575 18.2032 6.99894 14.4846C6.99225 14.4474 6.98381 14.4102 6.97838 14.3771C6.73144 12.8182 7.95063 11.4378 9.19626 10.8143C9.66551 10.5784 10.2171 10.4349 10.6301 10.3892V10.5479C10.6301 13.1248 12.7746 15.2437 15.3938 15.2437H16.0598C18.679 15.2437 20.8739 13.1247 20.8739 10.5479V9.55902C20.8739 9.54469 20.8405 9.53141 20.8397 9.51764C20.8649 9.39287 20.8742 9.23706 20.9058 9.04226C21.1425 7.579 21.6888 4.15219 24.0013 2.5202C24.9499 1.85077 26.121 1.55642 27.4981 1.64121L27.2077 2.74685C27.149 2.97209 27.1901 3.21116 27.3224 3.40381L30.3167 7.76476C30.37 7.8426 30.3558 7.94707 30.2844 8.00807Z" fill="white"/>
<path d="M25.9936 5.72491C26.3358 5.72491 26.6132 5.45201 26.6132 5.11536C26.6132 4.77872 26.3358 4.50582 25.9936 4.50582C25.6514 4.50582 25.374 4.77872 25.374 5.11536C25.374 5.45201 25.6514 5.72491 25.9936 5.72491Z" fill="white"/>
<path d="M31.6861 6.85619L28.8987 2.79709L29.3293 1.14616C29.3866 0.926092 29.3478 0.692432 29.2221 0.501753C29.0963 0.311075 28.8952 0.180963 28.6675 0.142901C26.4469 -0.228618 24.5502 0.124762 23.0304 1.19738C20.1827 3.20716 19.5158 7.19776 19.2648 8.74201H10.9735C10.4708 8.74201 9.95982 8.81733 9.45819 8.96448C9.03175 7.61245 7.76188 6.62886 6.26544 6.62886H5.23281C3.36524 6.62886 1.87349 8.12828 1.87349 9.96571V17.4024C1.87349 17.7147 2.04155 17.9994 2.32761 18.1348C2.44155 18.1887 2.55693 18.2151 2.67862 18.2151C2.86268 18.2151 3.04168 18.1547 3.19087 18.0374L5.58394 15.8948C6.18162 18.8174 7.092 21.6623 7.9185 23.9181C6.36069 23.3587 5.062 22.6285 4.17506 21.8004C3.34174 21.023 2.04236 20.9245 1.08555 21.5659C0.460985 21.9849 0.0681718 22.6505 0.00798421 23.392C-0.0515784 24.1253 0.224235 24.8346 0.764361 25.3378C2.14749 26.6279 3.96249 27.685 6.15894 28.4799C8.90938 29.4743 12.1219 30 15.4493 30C18.7761 30 21.9883 29.4743 24.7389 28.4799C26.9345 27.6857 28.7494 26.6287 30.133 25.3382C30.6736 24.8348 30.9494 24.1254 30.8899 23.3921C30.8296 22.6505 30.4369 21.985 29.8126 21.5661C29.3982 21.2881 28.9138 21.1411 28.4118 21.1411C27.7793 21.1411 27.1797 21.3752 26.723 21.8006C25.8448 22.62 24.5639 23.3444 23.0283 23.9016C24.2871 20.8166 25.5634 17.6317 25.5634 14.5025C25.5634 10.9369 26.3977 10.0845 26.7564 9.88344C27.2686 9.59647 27.9926 9.93152 28.3795 10.1572C29.0597 10.5532 29.9194 10.4752 30.5188 9.96257L31.3686 9.2346C32.0681 8.63619 32.2049 7.61405 31.6861 6.85619ZM12.2825 10.3674H19.2218V10.5481C19.2218 12.2287 17.768 13.6184 16.0598 13.6184H15.3939C13.6856 13.6184 12.2825 12.2286 12.2825 10.5481V10.3674ZM6.05319 11.4954C5.48975 12.3767 5.24875 13.3335 5.3195 14.2849L3.52574 15.7129V9.96565C3.52574 9.02449 4.27618 8.25434 5.23275 8.25434H6.26537C7.08894 8.25434 7.75775 8.82041 7.92082 9.59431C7.92175 9.59868 7.92388 9.62641 7.92644 9.66121C7.16638 10.1386 6.51337 10.7756 6.05319 11.4954ZM27.8596 22.9803C28.0077 22.8424 28.2037 22.7664 28.4119 22.7664C28.5804 22.7664 28.7428 22.8156 28.8817 22.9089C29.0911 23.0494 29.2228 23.2728 29.243 23.5215C29.2545 23.663 29.2378 23.9336 28.9971 24.1578C28.9969 24.1578 28.9968 24.158 28.9966 24.1582C27.7769 25.296 26.1527 26.2367 24.169 26.9541C21.599 27.8834 18.5839 28.3745 15.4493 28.3745C12.3143 28.3745 9.29882 27.8834 6.729 26.9542C4.74462 26.2362 3.12024 25.2954 1.90061 24.1578C1.65999 23.9336 1.64336 23.663 1.65474 23.5215C1.67499 23.2727 1.80668 23.0494 2.0158 22.909C2.15824 22.8136 2.32268 22.7668 2.48543 22.7668C2.68718 22.7668 2.88643 22.8388 3.03743 22.9798C4.42668 24.2769 6.51319 25.3122 9.06944 25.9733C9.25888 26.0228 9.45838 26.0716 9.66257 26.1184C10.5722 26.3267 11.5251 26.4856 12.494 26.5905C14.4131 26.8 16.4598 26.8009 18.374 26.5932C19.3543 26.489 20.3171 26.3291 21.2343 26.1185C21.4087 26.0788 21.5966 26.033 21.8281 25.9738C24.3847 25.3117 26.4705 24.2764 27.8596 22.9803ZM15.3663 18.8266C15.4306 18.8266 15.5052 18.8267 15.5694 18.8267C17.5488 18.8267 17.487 20.6465 17.487 20.7955V25.0448C16.1652 25.1485 14.7608 25.1478 13.439 25.043V20.7955C13.439 20.7129 13.3838 18.8266 15.3663 18.8266ZM30.2844 8.00807C30.2844 8.00813 30.2842 8.00826 30.2841 8.00832L29.4346 8.73604C29.3736 8.78825 29.2877 8.79698 29.2216 8.75855C28.0223 8.0588 26.8564 7.95654 25.9387 8.47084C24.5744 9.23534 23.9111 11.2083 23.9111 14.5023C23.9111 17.3767 22.6463 20.475 21.4233 23.4714C21.2849 23.8103 21.1432 24.1576 21.0048 24.5012C20.9552 24.513 20.9206 24.5244 20.8738 24.535C20.3077 24.6651 19.7175 24.7738 19.1392 24.8609V20.7953C19.1392 20.1045 18.8362 17.2132 15.797 17.2132C15.7476 17.2132 15.6881 17.2053 15.6375 17.2031C15.5166 17.197 15.3863 17.1969 15.265 17.2034C15.2091 17.2064 15.1652 17.2155 15.109 17.2155C12.0638 17.2155 11.7868 20.0841 11.7868 20.7953V24.8568C11.2085 24.7701 10.6091 24.6626 10.051 24.5348C10.0043 24.5241 9.95213 24.513 9.90601 24.5021C8.90782 21.9189 7.64575 18.2032 6.99894 14.4846C6.99225 14.4474 6.98381 14.4102 6.97838 14.3771C6.73144 12.8182 7.95063 11.4378 9.19626 10.8143C9.66551 10.5784 10.2171 10.4349 10.6301 10.3892V10.5479C10.6301 13.1248 12.7746 15.2437 15.3938 15.2437H16.0598C18.679 15.2437 20.8739 13.1247 20.8739 10.5479V9.55902C20.8739 9.54469 20.8405 9.53141 20.8397 9.51764C20.8649 9.39287 20.8742 9.23706 20.9058 9.04226C21.1425 7.579 21.6888 4.15219 24.0013 2.5202C24.9499 1.85077 26.121 1.55642 27.4981 1.64121L27.2077 2.74685C27.149 2.97209 27.1901 3.21116 27.3224 3.40381L30.3167 7.76476C30.37 7.8426 30.3558 7.94707 30.2844 8.00807Z" stroke="#97CE17" stroke-width="0.2" mask="url(#path-1-inside-1)"/>
<path d="M25.9936 5.72491C26.3358 5.72491 26.6132 5.45201 26.6132 5.11536C26.6132 4.77872 26.3358 4.50582 25.9936 4.50582C25.6514 4.50582 25.374 4.77872 25.374 5.11536C25.374 5.45201 25.6514 5.72491 25.9936 5.72491Z" stroke="#97CE17" stroke-width="0.2" mask="url(#path-1-inside-1)"/>
</svg>
