<svg width="29" height="34" viewBox="0 0 29 34" fill="none" xmlns="http://www.w3.org/2000/svg">
<path d="M28.9662 9.22507L28.9652 9.19861C28.9504 8.87203 28.9405 8.52651 28.9345 8.14208C28.9067 6.2674 27.414 4.71672 25.536 4.61192C21.6205 4.39376 18.5915 3.11908 16.0034 0.600573L15.9814 0.579562C15.1372 -0.193187 13.8638 -0.193187 13.0194 0.579562L12.9973 0.600573C10.4092 3.11908 7.38022 4.39376 3.46471 4.61218C1.58698 4.71672 0.0940433 6.2674 0.0662424 8.14234C0.0605263 8.52417 0.0503933 8.86969 0.0355834 9.19861L0.0340245 9.26009C-0.0421032 13.2463 -0.136678 18.2073 1.52566 22.7102C2.43971 25.1864 3.82404 27.3389 5.63994 29.1083C7.70812 31.1233 10.417 32.723 13.6913 33.8628C13.7978 33.8999 13.9085 33.93 14.0213 33.9525C14.1803 33.9842 14.3403 34 14.5004 34C14.6604 34 14.8207 33.9842 14.9795 33.9525C15.0922 33.93 15.2037 33.8996 15.3108 33.8623C18.5811 32.7204 21.2872 31.1199 23.3535 29.1051C25.1687 27.3353 26.553 25.1823 27.4678 22.7055C29.1364 18.1891 29.0421 13.2188 28.9662 9.22507ZM25.5929 22.0153C23.8397 26.7612 20.2606 30.0206 14.6513 31.979C14.6313 31.9858 14.61 31.9917 14.5879 31.9961C14.53 32.0076 14.471 32.0076 14.4123 31.9959C14.3905 31.9915 14.3692 31.9858 14.3494 31.979C8.73415 30.0242 5.15277 26.7667 3.40079 22.0204C1.86863 17.8698 1.95541 13.3158 2.03205 9.29822L2.03257 9.27591C2.04816 8.93065 2.05856 8.56905 2.06427 8.17165C2.07674 7.33924 2.74085 6.65053 3.57617 6.6041C5.79193 6.48063 7.73852 6.05314 9.52713 5.29725C11.3134 4.5424 12.8999 3.47834 14.3767 2.04439C14.4518 1.98109 14.5492 1.98084 14.6241 2.04439C16.1011 3.47834 17.6876 4.5424 19.4736 5.29725C21.2622 6.05314 23.2088 6.48063 25.4248 6.6041C26.2602 6.65053 26.9243 7.33924 26.9365 8.17191C26.9425 8.57138 26.9529 8.93299 26.9684 9.27591C27.0448 13.2982 27.1295 17.8558 25.5929 22.0153Z" fill="white"/>
</svg>
