<svg width="32" height="30" viewBox="0 0 32 30" fill="none" xmlns="http://www.w3.org/2000/svg">
<path d="M26.8921 5.9944H24.6173V3.80541C24.6173 1.70712 22.8814 0 20.7477 0H11.2522C9.11852 0 7.38259 1.70712 7.38259 3.80541V5.9944H5.1078C2.29132 5.9944 0 8.24759 0 11.0173V24.977C0 27.7467 2.29132 30 5.1078 30H26.8922C29.7087 30 32 27.7467 32 24.977V11.0173C31.9999 8.24759 29.7086 5.9944 26.8921 5.9944ZM9.02629 3.80541C9.02629 2.59839 10.0248 1.61642 11.2522 1.61642H20.7477C21.9751 1.61642 22.9736 2.59839 22.9736 3.80541V5.9944H9.02629V3.80541ZM30.3562 24.977C30.3562 26.8553 28.8022 28.3836 26.8921 28.3836H5.1078C3.19773 28.3836 1.6437 26.8553 1.6437 24.977V11.0173C1.6437 9.13896 3.19773 7.61072 5.1078 7.61072H26.8922C28.8023 7.61072 30.3563 9.13896 30.3563 11.0173V24.977H30.3562ZM21.4676 14.9363H19.1124V12.6204C19.1124 11.7039 18.3542 10.9582 17.4222 10.9582H14.5777C13.6457 10.9582 12.8875 11.7039 12.8875 12.6204V14.9363H10.5323C9.6003 14.9363 8.8421 15.682 8.8421 16.5985V19.3958C8.8421 20.3124 9.6003 21.0581 10.5323 21.0581H12.8875V23.374C12.8875 24.2905 13.6457 25.0361 14.5777 25.0361H17.4222C18.3542 25.0361 19.1124 24.2905 19.1124 23.374V21.0581H21.4676C22.3994 21.0581 23.1574 20.3124 23.1574 19.3958V16.5985C23.1574 15.682 22.3994 14.9363 21.4676 14.9363ZM21.5137 19.3958C21.5137 19.4194 21.4914 19.4416 21.4676 19.4416H18.2905C17.8366 19.4416 17.4687 19.8035 17.4687 20.2499V23.374C17.4687 23.3975 17.4461 23.4197 17.4222 23.4197H14.5777C14.5538 23.4197 14.5312 23.3975 14.5312 23.374V20.2499C14.5312 19.8035 14.1633 19.4416 13.7094 19.4416H10.5323C10.5088 19.4416 10.4858 19.4189 10.4858 19.3958V16.5985C10.4858 16.575 10.5084 16.5528 10.5323 16.5528H13.7094C14.1633 16.5528 14.5312 16.1909 14.5312 15.7445V12.6204C14.5312 12.5973 14.5542 12.5747 14.5777 12.5747H17.4222C17.4461 12.5747 17.4687 12.5968 17.4687 12.6204V15.7445C17.4687 16.1909 17.8366 16.5528 18.2905 16.5528H21.4676C21.4914 16.5528 21.5137 16.575 21.5137 16.5985V19.3958Z" fill="white"/>
</svg>
