<svg width="34" height="30" viewBox="0 0 34 30" fill="none" xmlns="http://www.w3.org/2000/svg">
<path d="M8.70775 26.1138L8.66619 26.19L8.70774 26.1138C7.62879 25.5256 6.83084 24.7528 6.30175 23.7821C5.77226 22.8108 5.50878 21.6353 5.50878 20.2374V13.5396C5.50878 8.50961 8.95733 4.24447 13.6836 2.85883C17.2637 2.90965 19.143 5.41714 19.143 7.19787C19.143 8.55348 18.0062 9.66157 16.6028 9.66157C15.5635 9.66157 14.7229 8.84113 14.7229 7.83908C14.7229 7.11985 15.3265 6.5295 16.0745 6.5295C16.4922 6.5295 16.836 6.19991 16.836 5.78725C16.836 5.37458 16.4922 5.045 16.0745 5.045C14.4922 5.045 13.2 6.29557 13.2 7.83908C13.2 9.66541 14.7292 11.1461 16.6028 11.1461C18.8405 11.1461 20.6659 9.37776 20.6659 7.19787C20.6659 5.83188 19.9605 4.37238 18.7887 3.28784L18.722 3.35991L18.7887 3.28784C18.4222 2.9487 18.0166 2.65197 17.5796 2.39948C23.65 2.69366 28.4912 7.58012 28.4912 13.5396V20.2374C28.4912 21.6353 28.2277 22.8108 27.6983 23.7821C27.1692 24.7528 26.3712 25.5256 25.2923 26.1138C23.4455 27.1205 20.7376 27.6155 17 27.6155C13.2625 27.6155 10.5545 27.1205 8.70775 26.1138ZM19.4884 19.8804L19.4884 19.8804C18.1168 21.2124 15.8832 21.2124 14.5116 19.8804L14.5116 19.8804C14.2144 19.5919 13.734 19.5919 13.4369 19.8804L13.4369 19.8804C13.1381 20.1705 13.1381 20.6421 13.4369 20.9322C14.4198 21.8866 15.7105 22.3633 17 22.3633C18.2896 22.3633 19.5802 21.8866 20.5632 20.9322C20.862 20.6421 20.862 20.1705 20.5632 19.8804L20.5632 19.8804C20.266 19.5919 19.7856 19.5919 19.4884 19.8804ZM10.3269 19.5169C11.0811 19.5169 11.6975 18.9225 11.6975 18.1832C11.6975 17.4438 11.0811 16.8494 10.3269 16.8494C9.57276 16.8494 8.95632 17.4438 8.95632 18.1832C8.95632 18.9225 9.57276 19.5169 10.3269 19.5169ZM23.673 19.5169C24.4272 19.5169 25.0436 18.9225 25.0436 18.1832C25.0436 17.4438 24.4272 16.8494 23.673 16.8494C22.9188 16.8494 22.3024 17.4438 22.3024 18.1832C22.3024 18.9225 22.9188 19.5169 23.673 19.5169ZM33.1 17.6596C33.1 15.8491 31.7699 14.3397 30.0141 13.9956V13.5396C30.0141 6.56724 24.1733 0.9 17 0.9C9.82671 0.9 3.98591 6.56724 3.98591 13.5396V13.9957C2.23012 14.3398 0.9 15.8492 0.9 17.6596C0.9 19.4881 2.2568 21.0099 4.03875 21.3337C4.30834 24.0892 5.62541 26.1344 7.96439 27.4094C10.0577 28.5506 13.0172 29.1 17 29.1C20.9828 29.1 23.9424 28.5505 26.0357 27.4094C28.3746 26.1344 29.6917 24.0892 29.9612 21.3337C31.7432 21.01 33.1 19.4881 33.1 17.6596ZM2.42286 17.6596C2.42286 16.6772 3.07546 15.8374 3.98583 15.5304V19.7887C3.07547 19.4818 2.42286 18.642 2.42286 17.6596ZM31.5771 17.6596C31.5771 18.642 30.9245 19.4818 30.0141 19.7888V15.5305C30.9245 15.8375 31.5771 16.6773 31.5771 17.6596Z" fill="white" stroke="white" stroke-width="0.2"/>
</svg>
