<svg width="32" height="24" viewBox="0 0 32 24" fill="none" xmlns="http://www.w3.org/2000/svg">
<path d="M25.5999 19.8273C23.7031 19.8273 22.7241 20.5238 21.8606 21.138C21.1021 21.6773 20.5029 22.1033 19.1995 22.1033C17.8962 22.1033 17.2971 21.6773 16.5388 21.138C15.6753 20.5235 14.6963 19.8273 12.7996 19.8273C10.9031 19.8273 9.92407 20.5238 9.06055 21.138C8.30225 21.6773 7.70312 22.1033 6.3999 22.1033C5.09668 22.1033 4.49756 21.6773 3.73926 21.138C2.87549 20.5238 1.89648 19.8273 0 19.8273V21.724C1.30347 21.724 1.90234 22.15 2.66064 22.6896C3.52441 23.3038 4.50317 24 6.3999 24C8.29639 24 9.27539 23.3038 10.1389 22.6896C10.8972 22.15 11.4963 21.724 12.7996 21.724C14.103 21.724 14.7019 22.15 15.4604 22.6896C16.324 23.3038 17.303 24 19.1995 24C21.0962 24 22.0752 23.3038 22.939 22.6896C23.6973 22.1503 24.2964 21.724 25.5999 21.724C26.9033 21.724 27.5022 22.15 28.2607 22.6896C29.1243 23.3038 30.1033 24 32 24V22.1033C30.6965 22.1033 30.0974 21.6773 29.3391 21.138C28.4753 20.5238 27.4963 19.8273 25.5999 19.8273Z" fill="white"/>
<path d="M25.5999 6.60919C23.7031 6.60919 22.7241 7.30538 21.8606 7.91957C21.1021 8.45894 20.5029 8.88519 19.1995 8.88519C17.8962 8.88519 17.2971 8.45894 16.5388 7.91957C15.6753 7.30538 14.6963 6.60919 12.7996 6.60919C10.9031 6.60919 9.92407 7.30538 9.06055 7.91957C8.30225 8.45894 7.70312 8.88519 6.3999 8.88519C5.09668 8.88519 4.49756 8.45894 3.73926 7.91957C2.87549 7.30538 1.89648 6.60919 0 6.60919V8.50586C1.30347 8.50586 1.90234 8.93187 2.66064 9.47124C3.52441 10.0857 4.50317 10.7819 6.3999 10.7819C8.29639 10.7819 9.27539 10.0854 10.1389 9.47124C10.8972 8.93187 11.4963 8.50586 12.7996 8.50586C14.103 8.50586 14.7019 8.93187 15.4604 9.47124C16.324 10.0857 17.303 10.7819 19.1995 10.7819C21.0962 10.7819 22.0752 10.0854 22.939 9.47124C23.6973 8.93187 24.2964 8.50586 25.5999 8.50586C26.9033 8.50586 27.5022 8.93187 28.2607 9.47124C29.1243 10.0857 30.1033 10.7819 32 10.7819V8.88519C30.6965 8.88519 30.0974 8.45894 29.3391 7.91957C28.4753 7.30538 27.4963 6.60919 25.5999 6.60919Z" fill="white"/>
<path d="M25.5999 13.2184C23.7031 13.2184 22.7241 13.9146 21.8606 14.5288C21.1021 15.0681 20.5029 15.4944 19.1995 15.4944C17.8962 15.4944 17.2971 15.0681 16.5388 14.5288C15.6753 13.9146 14.6963 13.2184 12.7996 13.2184C10.9031 13.2184 9.92407 13.9146 9.06055 14.5288C8.30225 15.0681 7.70312 15.4944 6.3999 15.4944C5.09668 15.4944 4.49756 15.0681 3.73926 14.5288C2.87549 13.9146 1.89648 13.2184 0 13.2184V15.1151C1.30347 15.1151 1.90234 15.5411 2.66064 16.0804C3.52441 16.6946 4.50317 17.3911 6.3999 17.3911C8.29639 17.3911 9.27539 16.6946 10.1389 16.0804C10.8972 15.5411 11.4963 15.1151 12.7996 15.1151C14.103 15.1151 14.7019 15.5411 15.4604 16.0804C16.324 16.6946 17.303 17.3911 19.1995 17.3911C21.0962 17.3911 22.0752 16.6946 22.939 16.0804C23.6973 15.5411 24.2964 15.1151 25.5999 15.1151C26.9033 15.1151 27.5022 15.5411 28.2607 16.0804C29.1243 16.6946 30.1033 17.3911 32 17.3911V15.4944C30.6965 15.4944 30.0974 15.0681 29.3391 14.5288C28.4753 13.9146 27.4963 13.2184 25.5999 13.2184Z" fill="white"/>
<path d="M29.3391 1.31063C28.4753 0.696186 27.4963 0 25.5999 0C23.7031 0 22.7241 0.696186 21.8606 1.31063C21.1021 1.84999 20.5029 2.276 19.1995 2.276C17.8962 2.276 17.2971 1.84999 16.5388 1.31063C15.6753 0.696186 14.6963 0 12.7996 0C10.9031 0 9.92407 0.696186 9.06055 1.31063C8.30225 1.84999 7.70312 2.276 6.3999 2.276C5.09668 2.276 4.49756 1.84999 3.73926 1.31063C2.87549 0.696186 1.89648 0 0 0V1.89667C1.30347 1.89667 1.90234 2.32268 2.66064 2.86204C3.52441 3.47649 4.50317 4.17267 6.3999 4.17267C8.29639 4.17267 9.27539 3.47649 10.1389 2.86204C10.8972 2.32268 11.4963 1.89667 12.7996 1.89667C14.103 1.89667 14.7019 2.32268 15.4604 2.86204C16.324 3.47649 17.303 4.17267 19.1995 4.17267C21.0962 4.17267 22.0752 3.47649 22.939 2.86204C23.6973 2.32268 24.2964 1.89667 25.5999 1.89667C26.9033 1.89667 27.5022 2.32268 28.2607 2.86204C29.1243 3.47649 30.1033 4.17267 32 4.17267V2.276C30.6965 2.276 30.0974 1.84999 29.3391 1.31063Z" fill="white"/>
</svg>
