<svg width="31" height="31" viewBox="0 0 31 31" fill="none" xmlns="http://www.w3.org/2000/svg">
<path d="M27.4403 1.24788C25.7737 -0.41596 23.0748 -0.41596 21.4082 1.24788L19.8983 2.76626L3.82482 18.8327L3.79067 18.8671C3.78239 18.8754 3.78239 18.8842 3.77359 18.8842C3.75651 18.9098 3.73089 18.9352 3.71407 18.9608C3.71407 18.9693 3.70527 18.9693 3.70527 18.9779C3.68819 19.0035 3.67991 19.0206 3.66257 19.0462C3.65429 19.0547 3.65429 19.063 3.64575 19.0718C3.63721 19.0974 3.62867 19.1145 3.61987 19.1401C3.61987 19.1484 3.61159 19.1484 3.61159 19.1572L0.0453836 29.8822C-0.0592303 30.1876 0.0202976 30.5257 0.250074 30.7523C0.411532 30.9116 0.6293 31.0008 0.855874 31C0.948478 30.9984 1.04028 30.984 1.12888 30.9573L11.8446 27.3822C11.8529 27.3822 11.8529 27.3822 11.8617 27.3739C11.8886 27.3659 11.9145 27.3544 11.9383 27.3395C11.9449 27.3387 11.9508 27.3358 11.9556 27.3312C11.981 27.3141 12.0151 27.2968 12.0407 27.2797C12.0661 27.2629 12.092 27.2373 12.1176 27.2202C12.1261 27.2114 12.1344 27.2114 12.1344 27.2031C12.1432 27.1946 12.1603 27.1863 12.1688 27.1689L29.7522 9.58388C31.4159 7.91711 31.4159 5.21798 29.7522 3.55147L27.4403 1.24788ZM11.5716 25.377L5.63368 19.4388L20.4955 4.57555L26.4334 10.5138L11.5716 25.377ZM4.79731 21.0172L9.98476 26.2049L2.1953 28.7986L4.79731 21.0172ZM28.5494 8.38925L27.645 9.30231L21.7069 3.36357L22.6201 2.45078C23.619 1.45259 25.2381 1.45259 26.2373 2.45078L28.5577 4.77146C29.5492 5.77499 29.5454 7.39052 28.5494 8.38925Z" fill="white"/>
</svg>
