<?xml version="1.0" encoding="UTF-8"?>
<!DOCTYPE svg PUBLIC "-//W3C//DTD SVG 1.1//EN" "http://www.w3.org/Graphics/SVG/1.1/DTD/svg11.dtd">
<!-- Creator: CorelDRAW 2019 (64-Bit) -->
<svg xmlns="http://www.w3.org/2000/svg" xml:space="preserve" width="502px" height="105px" version="1.1" style="shape-rendering:geometricPrecision; text-rendering:geometricPrecision; image-rendering:optimizeQuality; fill-rule:evenodd; clip-rule:evenodd"
viewBox="0 0 502 105.06"
 xmlns:xlink="http://www.w3.org/1999/xlink">
 <defs>
  <style type="text/css">
   <![CDATA[
    .fil1 {fill:#009600}
    .fil0 {fill:#96D200}
    .fil2 {fill:#009600;fill-rule:nonzero}
   ]]>
  </style>
 </defs>
 <g id="Слой_x0020_1">
  <metadata id="CorelCorpID_0Corel-Layer"/>
  <g id="_1433755600">
   <polygon class="fil0" points="24.8,30.01 65.86,30.01 65.97,33.93 65.97,71.09 55.36,60.48 55.36,40.59 55.33,40.62 35.51,40.62 "/>
   <path class="fil0" d="M90.83 21.55l0 60.74 -13.66 0 0 -48.26 7 -2.22c2.14,-0.67 4.55,-3.47 5.37,-6.12l1.29 -4.14z"/>
   <path class="fil0" d="M0 5.12l68.9 0 -1.21 0.41c-2.12,0.71 -4.54,3.47 -5.37,6.12l-2.22 7.13 -46.44 0 -13.66 -13.66z"/>
   <path class="fil1" d="M13.66 82.29l38.45 0 0 22.77 -13.91 0 0 -9.11 -38.2 0 0 -90.83 13.66 13.66 0 63.51zm21.85 -41.67l-0.04 19.86 19.89 0 10.61 10.61 -41.11 0 0 -41.11 10.65 10.64z"/>
   <path class="fil1" d="M70.11 7.4l21.43 -7.24c1.81,-0.61 3.13,0.59 2.43,2.84l-6.37 20.46c-0.7,2.25 -2.76,4.59 -4.57,5.2l-21.4 7.23c-1.81,0.61 -3.16,-0.58 -2.46,-2.83l6.38 -20.46c0.7,-2.25 2.75,-4.59 4.56,-5.2z"/>
  </g>
  <path class="fil2" d="M139.44 57.34c7.52,0 13.81,-2.53 18.8,-7.52 5.05,-5.06 7.58,-11.21 7.58,-18.52 0,-7.32 -2.53,-13.54 -7.58,-18.59 -5.06,-5.06 -11.35,-7.59 -18.87,-7.59 -7.45,0 -13.74,2.53 -18.79,7.59 -5.06,5.05 -7.59,11.27 -7.59,18.59 0,7.31 2.53,13.53 7.52,18.52 5.06,4.99 11.34,7.52 18.93,7.52zm-0.07 -12.65c-3.69,0 -6.83,-1.3 -9.36,-3.82 -2.53,-2.53 -3.83,-5.75 -3.83,-9.64 0,-3.83 1.3,-7.04 3.83,-9.57 2.53,-2.6 5.67,-3.9 9.36,-3.9 3.62,0 6.77,1.3 9.3,3.83 2.59,2.53 3.89,5.74 3.96,9.64 0,3.89 -1.3,7.11 -3.83,9.64 -2.53,2.52 -5.67,3.82 -9.43,3.82zm75.44 11.83l0 -12.17 -24.53 0 0 -38.34 -12.85 0 0 50.51 37.38 0zm22.61 0l0 -24.27 12.64 17.71 4.79 0 12.64 -17.71 0 24.27 12.65 0 0 -50.51 -9.5 0 -18.12 25.97 -18.18 -25.97 -9.43 0 0 50.51 12.51 0zm100.39 0l-17.98 -50.51 -11.89 0 -18.46 50.51 13.2 0 3 -9.23 16.07 0 2.93 9.23 13.13 0zm-28.91 -20.3l4.99 -14.97 4.78 14.97 -9.77 0zm79.06 20.3l0 -11.62 -23.17 0 22.42 -28.85 0 -10.04 -39.44 0 0 11.62 22.21 0 -23.03 29.25 0 9.64 41.01 0zm34.77 0.82c7.52,0 13.81,-2.53 18.8,-7.52 5.06,-5.06 7.58,-11.21 7.58,-18.52 0,-7.32 -2.52,-13.54 -7.58,-18.59 -5.06,-5.06 -11.35,-7.59 -18.87,-7.59 -7.45,0 -13.73,2.53 -18.79,7.59 -5.06,5.05 -7.59,11.27 -7.59,18.59 0,7.31 2.53,13.53 7.52,18.52 5.06,4.99 11.35,7.52 18.93,7.52zm-0.07 -12.65c-3.69,0 -6.83,-1.3 -9.36,-3.82 -2.53,-2.53 -3.83,-5.75 -3.83,-9.64 0,-3.83 1.3,-7.04 3.83,-9.57 2.53,-2.6 5.67,-3.9 9.36,-3.9 3.63,0 6.77,1.3 9.3,3.83 2.6,2.53 3.89,5.74 3.96,9.64 0,3.89 -1.3,7.11 -3.82,9.64 -2.53,2.52 -5.68,3.82 -9.44,3.82zm79.34 11.83l-10.94 -18.73c6.22,-2.94 9.23,-8.68 9.23,-15.04 0,-4.85 -1.57,-8.81 -4.71,-11.96 -3.15,-3.21 -7.73,-4.78 -13.81,-4.78l-21.05 0 0 50.51 12.78 0 0 -16.75 4.99 0 8.88 16.75 14.63 0zm-20.37 -38.82c7.11,-0.55 7.73,11.34 -0.48,10.93l-7.65 0 0 -10.93 8.13 0z"/>
  <path class="fil2" d="M129.5 83.59c1.85,-0.7 3.1,-2.55 3.1,-4.58 0,-1.49 -0.58,-2.79 -1.7,-3.89 -1.12,-1.12 -2.73,-1.66 -4.79,-1.66l-10.07 0 0 22.41 10.58 0c2.16,0 3.88,-0.64 5.19,-1.88 1.3,-1.24 1.97,-2.82 1.97,-4.67 0,-2.79 -1.49,-5.04 -4.28,-5.73zm-4.27 -5.83c1.48,0 2.39,0.97 2.39,2.16 0,1.21 -0.91,2.24 -2.6,2.24l-4.04 0 0 -4.4 4.25 0zm-4.25 13.77l0 -5.28 4.67 0c1.91,0 2.94,1.19 2.94,2.64 0,1.43 -1.06,2.64 -3.03,2.64l-4.58 0zm28.74 4.73c2.58,0 4.7,-0.72 6.4,-2.21 1.7,-1.49 2.55,-3.67 2.55,-6.61l0 -13.98 -5.04 0 0 13.77c0,2.76 -1.58,4.18 -3.91,4.18 -2.4,0 -3.94,-1.39 -3.94,-4.18l0 -13.77 -5.04 0 0 13.98c0,2.94 0.85,5.12 2.58,6.61 1.73,1.49 3.85,2.21 6.4,2.21zm24 0c2.55,0 4.62,-0.66 6.16,-1.97 1.58,-1.3 2.37,-3 2.37,-5.03 0,-2.58 -1.34,-4.49 -4.04,-5.7 -0.57,-0.28 -1.42,-0.61 -2.57,-1.07l-2.19 -0.88c-1.21,-0.54 -1.82,-1.21 -1.82,-1.97 0,-1.09 0.97,-1.85 2.67,-1.85 1.67,0 3.76,0.76 5.07,2l2.48 -3.73c-2.09,-1.97 -4.64,-2.97 -7.61,-2.97 -2.33,0 -4.28,0.64 -5.76,1.91 -1.49,1.28 -2.22,2.88 -2.22,4.82 0,2.46 1.22,4.37 3.61,5.68 0.64,0.33 1.61,0.75 2.88,1.24l2.01 0.73c1.3,0.57 1.94,1.27 1.94,2.09 0,1.24 -1.25,2.03 -2.94,2.03 -2.4,0 -4.43,-1 -6.1,-2.97l-2.73 3.58c2.06,2.64 5.25,4.06 8.79,4.06zm15.67 -0.39l5.04 0 0 -22.41 -5.04 0 0 22.41zm28.1 -9.31l-11.19 -13.1 -3.4 0 0 22.41 4.95 0 0 -12.98 10.94 12.98 3.61 0 0 -22.41 -4.91 0 0 13.1zm29.01 9.31l0 -4.67 -10.58 0 0 -4.28 9.82 0 0 -4.64 -9.82 0 0 -4.15 10.61 0 0 -4.67 -15.65 0 0 22.41 15.62 0zm14.67 0.39c2.54,0 4.61,-0.66 6.15,-1.97 1.58,-1.3 2.37,-3 2.37,-5.03 0,-2.58 -1.34,-4.49 -4.04,-5.7 -0.57,-0.28 -1.42,-0.61 -2.57,-1.07l-2.19 -0.88c-1.21,-0.54 -1.82,-1.21 -1.82,-1.97 0,-1.09 0.97,-1.85 2.67,-1.85 1.67,0 3.76,0.76 5.07,2l2.48 -3.73c-2.09,-1.97 -4.64,-2.97 -7.61,-2.97 -2.33,0 -4.28,0.64 -5.76,1.91 -1.49,1.28 -2.22,2.88 -2.22,4.82 0,2.46 1.22,4.37 3.61,5.68 0.64,0.33 1.61,0.75 2.88,1.24l2.01 0.73c1.3,0.57 1.94,1.27 1.94,2.09 0,1.24 -1.25,2.03 -2.94,2.03 -2.4,0 -4.43,-1 -6.1,-2.97l-2.73 3.58c2.06,2.64 5.25,4.06 8.8,4.06zm22.58 0c2.54,0 4.61,-0.66 6.15,-1.97 1.58,-1.3 2.37,-3 2.37,-5.03 0,-2.58 -1.34,-4.49 -4.04,-5.7 -0.57,-0.28 -1.42,-0.61 -2.57,-1.07l-2.19 -0.88c-1.21,-0.54 -1.82,-1.21 -1.82,-1.97 0,-1.09 0.97,-1.85 2.67,-1.85 1.67,0 3.76,0.76 5.07,2l2.48 -3.73c-2.09,-1.97 -4.64,-2.97 -7.61,-2.97 -2.33,0 -4.27,0.64 -5.76,1.91 -1.49,1.28 -2.22,2.88 -2.22,4.82 0,2.46 1.22,4.37 3.61,5.68 0.64,0.33 1.61,0.75 2.89,1.24l2 0.73c1.3,0.57 1.94,1.27 1.94,2.09 0,1.24 -1.25,2.03 -2.94,2.03 -2.4,0 -4.43,-1 -6.1,-2.97l-2.73 3.58c2.06,2.64 5.25,4.06 8.8,4.06zm33.46 -0.06c4.16,0 7.83,-1.94 9.89,-4.73l-3.36 -3.15c-1.73,2.06 -3.8,3.09 -6.22,3.09 -1.88,0 -3.46,-0.64 -4.73,-1.91 -1.28,-1.27 -1.91,-2.88 -1.91,-4.79 0,-1.97 0.63,-3.58 1.94,-4.89 1.3,-1.3 2.88,-1.94 4.73,-1.94 2.33,0 4.37,1.04 6.06,3.07l3.28 -3.34c-2.03,-2.76 -5.61,-4.55 -9.61,-4.55 -3.22,0 -5.95,1.09 -8.22,3.31 -2.25,2.18 -3.37,4.97 -3.37,8.37 0,3.36 1.09,6.12 3.31,8.28 2.21,2.12 4.94,3.18 8.21,3.18zm16.52 -0.33l5.03 0 0 -22.41 -5.03 0 0 22.41zm17.91 0l5.03 0 0 -17.59 6.31 0 0 -4.82 -17.68 0 0 4.82 6.34 0 0 17.59zm30.47 -22.41l-4.46 9.28 -4.37 -9.28 -5.85 0 7.73 14.74 0 7.67 5 0 0 -7.67 7.8 -14.74 -5.85 0z"/>
 </g>
</svg>
